<svg xmlns="http://www.w3.org/2000/svg" xmlns:xlink="http://www.w3.org/1999/xlink" width="220" height="54" version="1.1" viewBox="0 0 148 36"><title>NUMIZMAT_logo</title><desc>Created using Figma</desc><g id="Canvas" transform="translate(-881 336)"><g id="NUMIZMAT_logo"><g id="logo"><g id="Shield 2"><g id="Vector"><use fill="#1C2681" transform="translate(881 -335.384)" xlink:href="#path0_fill"/></g><g id="Group"><g id="Vector"><use fill="#1C2681" transform="translate(886.174 -331.521)" xlink:href="#path1_fill"/></g></g></g></g><g id="КЛУБ"><use fill="#EAB32C" transform="translate(956 -335)" xlink:href="#path2_fill"/></g><g id="НУМИЗМАТ"><use fill="#1C2681" transform="translate(915 -324)" xlink:href="#path3_fill"/></g><g id="Rectangle"><use fill="#EAB32C" transform="translate(915 -328)" xlink:href="#path4_fill"/></g><g id="Rectangle"><use fill="#EAB32C" transform="translate(991 -328)" xlink:href="#path4_fill"/></g><g id="royal-cross-crown-outline"><g id="Group"><g id="Vector"><use fill="#FFDA44" transform="translate(888 -329)" xlink:href="#path5_fill"/></g></g><g id="Rectangle"><use fill="#FFDA44" transform="translate(895 -326)" xlink:href="#path6_fill"/></g></g></g></g><defs><path id="path0_fill" d="M 28.7039 1.47043L 23.602 0.688252C 17.6177 -0.229961 11.5501 -0.228873 5.56578 0.688252L 0.463929 1.47043C 0.19724 1.51135 1.50916e-08 1.73983 1.50916e-08 2.00819L 1.50916e-08 5.90262C 1.50916e-08 17.0987 5.32262 27.8638 14.2389 34.7031C 14.3367 34.7817 14.4586 34.8243 14.5842 34.8243C 14.613 34.8243 14.643 34.8221 14.6724 34.8174C 14.7669 34.8019 14.8546 34.7621 14.9273 34.7042C 23.8446 27.8654 29.1678 17.0997 29.1678 5.90262L 29.1678 2.00819C 29.1678 1.73983 28.9706 1.51135 28.7039 1.47043ZM 28.0732 5.90262C 28.0732 16.6279 23.0387 26.9456 14.5842 33.5899C 6.1291 26.945 1.09456 16.6279 1.09456 5.90262L 1.09456 2.47473L 5.73254 1.76377C 11.6057 0.862536 17.5621 0.862536 23.4352 1.76377L 28.0732 2.47473L 28.0732 5.90262L 28.0732 5.90262Z"/><path id="path1_fill" d="M 18.4645 1.06855L 15.1826 0.500145C 11.333 -0.16711 7.42987 -0.166319 3.58033 0.500145L 0.298434 1.06855C 0.126879 1.09828 0 1.26432 0 1.45933L 0 4.28936C 0 12.4254 3.42391 20.2483 9.15953 25.2183C 9.22244 25.2755 9.30084 25.3064 9.38164 25.3064C 9.40019 25.3064 9.41945 25.3048 9.43835 25.3014C 9.49919 25.2901 9.55559 25.2612 9.60234 25.2191C 15.3387 20.2494 18.7629 12.4262 18.7629 4.28936L 18.7629 1.45933C 18.7629 1.26432 18.636 1.09828 18.4645 1.06855Z"/><path id="path2_fill" d="M 3.54492 7.51367L 2.53125 7.51367L 2.53125 11L 0.773438 11L 0.773438 2.46875L 2.53125 2.46875L 2.53125 5.88477L 3.33398 5.88477L 5.41992 2.46875L 7.56445 2.46875L 4.93359 6.50586L 7.83984 11L 5.74219 11L 3.54492 7.51367ZM 15.457 2.46875L 15.457 11L 13.6934 11L 13.6934 3.89258L 11.4199 3.89258L 11.2793 6.9043C 11.2207 7.91992 11.0918 8.7207 10.8926 9.30664C 10.6934 9.88867 10.4023 10.3164 10.0195 10.5898C 9.63672 10.8594 9.11328 10.9961 8.44922 11L 7.99219 11L 7.99219 9.58789L 8.28516 9.55859C 8.72656 9.5 9.04102 9.24609 9.22852 8.79688C 9.41992 8.34375 9.54102 7.53906 9.5918 6.38281L 9.73828 2.46875L 15.457 2.46875ZM 20.1914 6.5L 21.7441 2.46875L 23.6426 2.46875L 20.6602 9.50586L 20.4199 9.96875C 19.9785 10.7383 19.3027 11.123 18.3926 11.123L 17.7773 11.0996L 17.7598 9.6875C 17.8535 9.70312 18.0059 9.71094 18.2168 9.71094C 18.4629 9.71094 18.6602 9.66797 18.8086 9.58203C 18.9609 9.49609 19.0879 9.33789 19.1895 9.10742L 19.4062 8.55078L 16.4121 2.46875L 18.3047 2.46875L 20.1914 6.5ZM 30.1406 3.89258L 26.332 3.89258L 26.332 5.54492L 27.7031 5.54492C 28.707 5.54492 29.502 5.78906 30.0879 6.27734C 30.6777 6.76172 30.9727 7.41602 30.9727 8.24023C 30.9727 9.06836 30.6797 9.73438 30.0938 10.2383C 29.5117 10.7383 28.7363 10.9922 27.7676 11L 24.5566 11L 24.5566 2.46875L 30.1406 2.46875L 30.1406 3.89258ZM 26.332 6.96289L 26.332 9.58789L 27.7324 9.58789C 28.1816 9.58789 28.5391 9.46484 28.8047 9.21875C 29.0742 8.97266 29.209 8.64258 29.209 8.22852C 29.209 7.8418 29.0801 7.53711 28.8223 7.31445C 28.5684 7.08789 28.2188 6.9707 27.7734 6.96289L 26.332 6.96289Z"/><path id="path3_fill" d="M 12.8418 19L 9.91211 19L 9.91211 12.9062L 4.19922 12.9062L 4.19922 19L 1.26953 19L 1.26953 4.78125L 4.19922 4.78125L 4.19922 10.543L 9.91211 10.543L 9.91211 4.78125L 12.8418 4.78125L 12.8418 19ZM 20.7422 11.5L 23.3301 4.78125L 26.4941 4.78125L 21.5234 16.5098L 21.123 17.2812C 20.3874 18.5638 19.2611 19.2051 17.7441 19.2051L 16.7188 19.166L 16.6895 16.8125C 16.8457 16.8385 17.0996 16.8516 17.4512 16.8516C 17.8613 16.8516 18.1901 16.7799 18.4375 16.6367C 18.6914 16.4935 18.903 16.2298 19.0723 15.8457L 19.4336 14.918L 14.4434 4.78125L 17.5977 4.78125L 20.7422 11.5ZM 31.875 4.78125L 35.5273 15.0938L 39.1602 4.78125L 43.0078 4.78125L 43.0078 19L 40.0684 19L 40.0684 15.1133L 40.3613 8.4043L 36.5234 19L 34.5117 19L 30.6836 8.41406L 30.9766 15.1133L 30.9766 19L 28.0469 19L 28.0469 4.78125L 31.875 4.78125ZM 54.0918 4.78125L 57.0312 4.78125L 57.0312 19L 54.0918 19L 54.0918 9.55664L 48.3984 19L 45.4688 19L 45.4688 4.78125L 48.3984 4.78125L 48.3984 14.2441L 54.0918 4.78125ZM 66.582 8.69727C 66.582 8.1569 66.3704 7.73372 65.9473 7.42773C 65.5241 7.11523 64.9642 6.95898 64.2676 6.95898C 63.6426 6.95898 63.1217 7.11523 62.7051 7.42773C 62.2949 7.73372 62.0898 8.13411 62.0898 8.62891L 59.1602 8.62891C 59.1602 7.86068 59.375 7.17057 59.8047 6.55859C 60.2409 5.9401 60.8561 5.45833 61.6504 5.11328C 62.4512 4.76823 63.3236 4.5957 64.2676 4.5957C 65.9082 4.5957 67.194 4.94727 68.125 5.65039C 69.056 6.35352 69.5215 7.34961 69.5215 8.63867C 69.5215 9.27018 69.3294 9.85612 68.9453 10.3965C 68.5677 10.9368 68.0273 11.3698 67.3242 11.6953C 68.1055 11.9688 68.7044 12.3854 69.1211 12.9453C 69.5378 13.4987 69.7461 14.1888 69.7461 15.0156C 69.7461 16.2917 69.2448 17.3073 68.2422 18.0625C 67.2461 18.8112 65.9212 19.1855 64.2676 19.1855C 63.2324 19.1855 62.3014 19.0098 61.4746 18.6582C 60.6478 18.3001 60.0195 17.8151 59.5898 17.2031C 59.1667 16.5846 58.9551 15.8685 58.9551 15.0547L 61.9043 15.0547C 61.9043 15.5625 62.1257 15.9889 62.5684 16.334C 63.0111 16.6725 63.5775 16.8418 64.2676 16.8418C 65.0488 16.8418 65.6641 16.666 66.1133 16.3145C 66.569 15.9629 66.7969 15.5169 66.7969 14.9766C 66.7969 14.2344 66.5951 13.7038 66.1914 13.3848C 65.7878 13.0592 65.1986 12.8965 64.4238 12.8965L 62.6758 12.8965L 62.6758 10.6016L 64.4824 10.6016C 65.8822 10.582 66.582 9.94727 66.582 8.69727ZM 75.7422 4.78125L 79.3945 15.0938L 83.0273 4.78125L 86.875 4.78125L 86.875 19L 83.9355 19L 83.9355 15.1133L 84.2285 8.4043L 80.3906 19L 78.3789 19L 74.5508 8.41406L 74.8438 15.1133L 74.8438 19L 71.9141 19L 71.9141 4.78125L 75.7422 4.78125ZM 97.6367 16.0703L 92.5 16.0703L 91.5234 19L 88.4082 19L 93.7012 4.78125L 96.416 4.78125L 101.738 19L 98.623 19L 97.6367 16.0703ZM 93.291 13.6973L 96.8457 13.6973L 95.0586 8.375L 93.291 13.6973ZM 112.598 7.1543L 108.242 7.1543L 108.242 19L 105.312 19L 105.312 7.1543L 101.016 7.1543L 101.016 4.78125L 112.598 4.78125L 112.598 7.1543Z"/><path id="path4_fill" d="M 0 0L 38 0L 38 2L 0 2L 0 0Z"/><path id="path5_fill" d="M 15 6.1076C 15 4.84355 14.4266 3.67033 13.5052 3.04587C 12.6792 2.48349 11.6256 2.45005 10.7634 2.93245C 9.86438 2.44611 8.78214 2.51629 7.94107 3.00636L 7.94107 1.72335L 8.58791 1.72335C 8.83137 1.72335 9.02909 1.52943 9.02909 1.29206C 9.02909 1.05395 8.83148 0.86077 8.58791 0.86077L 7.94107 0.86077L 7.94107 0.43129C 7.94107 0.193175 7.74357 1.09683e-08 7.49989 1.09683e-08C 7.25643 1.09683e-08 7.05872 0.193069 7.05872 0.43129L 7.05872 0.860877L 6.41209 0.860877C 6.16863 0.860877 5.97092 1.05405 5.97092 1.29217C 5.97092 1.52954 6.16852 1.72346 6.41209 1.72346L 7.05882 1.72346L 7.05882 3.00647C 6.21471 2.51597 5.13192 2.44685 4.23715 2.9332C 3.3841 2.45505 2.32538 2.48082 1.49532 3.04608C 0.572985 3.66991 0 4.84291 0 6.1076C 0 6.46818 0.0470588 6.82642 0.132353 7.13642C 0.275163 7.92594 0.759368 9.10076 1.6098 10.7226L 1.6098 12.7667C 1.6098 12.9251 1.6988 13.0711 1.84161 13.1464C 2.46808 13.4766 4.55817 14 7.49989 14C 10.4893 14 12.5114 13.5614 13.1904 13.1261C 13.3145 13.0475 13.3903 12.9117 13.3903 12.7657L 13.3903 10.7237C 14.229 9.12323 14.727 7.91465 14.8621 7.16836C 14.9534 6.82706 15 6.46935 15 6.1076ZM 7.15937 4.20705C 7.24346 4.30694 7.36819 4.36455 7.5012 4.36455C 7.63366 4.36455 7.7585 4.30534 7.84303 4.20705C 8.46743 3.45873 9.58878 3.18271 10.462 3.74988C 11.1576 4.20471 11.5897 5.07996 11.5897 6.03742C 11.5897 6.31409 11.5523 6.58948 11.4702 6.88904C 11.38 7.36782 11.1059 8.07098 10.6745 8.95476C 9.60545 8.775 8.42037 8.70876 7.5 8.70876C 6.58007 8.70876 5.39521 8.775 4.32593 8.95476C 3.89303 8.06417 3.6171 7.35206 3.52277 6.85507C 3.44804 6.58575 3.41046 6.31036 3.41046 6.03572C 3.41046 5.07943 3.84303 4.20268 4.53922 3.74978C 5.40468 3.18516 6.53638 3.46236 7.15937 4.20705ZM 12.508 10.5126C 12.3282 10.7159 11.6326 10.9854 10.4916 11.1741C 10.7455 10.726 10.9696 10.3093 11.173 9.91786C 11.9117 10.0824 12.3679 10.2723 12.508 10.4104L 12.508 10.5126L 12.508 10.5126ZM 9.40022 11.3129C 8.83388 11.3644 8.20196 11.3965 7.5 11.3965C 6.79837 11.3965 6.16525 11.3634 5.60011 11.3129C 5.27462 10.753 4.98715 10.2357 4.7341 9.75738C 5.48834 9.64674 6.41351 9.57145 7.50011 9.57145C 8.58704 9.57145 9.51242 9.64674 10.2672 9.75568C 10.0138 10.2347 9.72593 10.7519 9.40022 11.3129ZM 2.49227 10.4548C 2.63235 10.2971 3.08932 10.0954 3.83072 9.92521C 4.0329 10.3173 4.25697 10.7305 4.50991 11.1787C 3.3671 10.9946 2.67168 10.7339 2.49227 10.5565L 2.49227 10.4548L 2.49227 10.4548ZM 0.882353 6.1076C 0.882353 5.12181 1.31002 4.22015 1.9976 3.75372C 2.4512 3.44596 2.98431 3.37418 3.47048 3.52881C 2.8793 4.17244 2.5281 5.07464 2.5281 6.03327C 2.5281 6.38341 2.57636 6.73611 2.66285 7.04377C 2.75991 7.55876 3.02244 8.26182 3.43834 9.13728C 2.88224 9.27998 2.40577 9.4641 2.07222 9.69945C 1.46993 8.49205 1.10686 7.57612 0.992919 6.95219C 0.91939 6.67733 0.882353 6.39321 0.882353 6.1076ZM 7.5 13.1386C 4.99717 13.1386 3.19826 12.7433 2.49227 12.486L 2.49227 11.51C 3.73769 12.0811 5.98115 12.2604 7.5 12.2604C 9.01885 12.2604 11.2626 12.0811 12.5081 11.51L 12.5081 12.5085C 11.8435 12.7921 10.1527 13.1386 7.5 13.1386ZM 14.0004 6.98711C 13.8918 7.5824 13.53 8.49546 12.9272 9.70052C 12.5952 9.46698 12.1184 9.28105 11.5635 9.14005C 11.9759 8.27012 12.2378 7.57665 12.3304 7.08136C 12.4252 6.74048 12.4729 6.38917 12.4729 6.03732C 12.4729 5.07932 12.1219 4.17734 11.5313 3.53349C 12.0231 3.37546 12.5487 3.44723 13.003 3.75595C 13.6902 4.22292 14.1186 5.12394 14.1186 6.10984C 14.1176 6.39566 14.0809 6.67957 14.0004 6.98711Z"/><path id="path6_fill" d="M 0 0L 1 0L 1 9L 0 9L 0 0Z"/></defs></svg>