<svg width="80" height="97" viewBox="0 0 513 622" version="1.1" xmlns="http://www.w3.org/2000/svg" xmlns:xlink="http://www.w3.org/1999/xlink">
<title>logo</title>
<desc>Created using Figma</desc>
<g id="Canvas" transform="translate(360 234)">
<g id="logo">
<g id="Shield 2">
<g id="Vector">
<use xlink:href="#path0_fill" transform="translate(-360 -234)" fill="#1C2681"/>
</g>
<g id="Group">
<g id="Vector">
<use xlink:href="#path1_fill" transform="translate(-269 -165)" fill="#1C2681"/>
</g>
</g>
<g id="royalty-elegant-vintage-crown">
<g id="Group">
<g id="Vector">
<use xlink:href="#path2_fill" transform="translate(-226 -109)" fill="#EAB32C"/>
</g>
<g id="Line">
<use xlink:href="#path3_stroke" transform="matrix(6.10226e-17 1 -1 6.14428e-17 -109 -33)" fill="#EAB32C"/>
</g>
</g>
</g>
</g>
</g>
</g>
<defs>
<path id="path0_fill" d="M 504.841 26.2636L 415.11 12.293C 309.859 -4.10737 203.142 -4.08793 97.8904 12.293L 8.15954 26.2636C 3.46903 26.9944 2.6543e-07 31.0753 2.6543e-07 35.8686L 2.6543e-07 105.427C 2.6543e-07 305.401 93.6138 497.678 250.433 619.836C 252.153 621.24 254.296 622 256.505 622C 257.013 622 257.539 621.962 258.056 621.877C 259.719 621.601 261.261 620.889 262.54 619.855C 419.378 497.706 513 305.42 513 105.427L 513 35.8686C 513 31.0753 509.532 26.9944 504.841 26.2636ZM 493.749 105.427C 493.749 296.993 405.202 481.278 256.505 599.952C 107.798 481.268 19.251 296.993 19.251 105.427L 19.251 44.2014L 100.823 31.503C 204.119 15.4059 308.882 15.4059 412.177 31.503L 493.749 44.2014L 493.749 105.427Z"/>
<path id="path1_fill" d="M 324.752 19.0854L 267.03 8.93314C 199.324 -2.98477 130.676 -2.97065 62.9705 8.93314L 5.24883 19.0854C 2.23154 19.6165 0 22.5821 0 26.0653L 0 76.6128C 0 221.932 60.2194 361.657 161.097 450.427C 162.203 451.448 163.582 452 165.003 452C 165.33 452 165.668 451.972 166.001 451.91C 167.071 451.71 168.063 451.193 168.885 450.441C 269.775 361.677 330 221.945 330 76.6128L 330 26.0653C 330 22.5821 327.769 19.6165 324.752 19.0854Z"/>
<path id="path2_fill" d="M 244 111.214C 244 90.1031 234.672 70.5249 219.685 60.0983C 206.248 50.7173 189.11 50.1394 175.085 58.2172C 157.769 48.5872 136.202 51.9726 122.009 64.5613C 107.782 51.9637 86.1549 48.589 68.9225 58.2172C 55.0462 50.2283 37.8244 50.6604 24.322 60.0983C 9.32055 70.5053 0 90.1031 0 111.214C 0 117.243 0.76549 123.216 2.15294 128.392C 4.47599 141.594 12.3524 161.19 26.1861 188.27L 26.1861 222.399C 26.1861 225.043 27.6338 227.481 29.9569 228.738C 40.1475 234.252 74.1462 243 121.998 243C 170.626 243 203.519 235.667 214.564 228.4C 216.582 227.088 217.816 224.828 217.816 222.38L 217.816 188.287C 231.458 161.565 239.568 141.405 241.757 128.925C 243.242 123.216 244 117.261 244 111.214ZM 116.459 79.4649C 117.827 81.1328 119.856 82.1036 122.019 82.1036C 124.174 82.1036 126.205 81.1132 127.58 79.4649C 137.737 66.9705 155.977 62.3618 170.182 71.8317C 181.497 79.4258 188.525 94.0504 188.525 110.014C 188.525 114.646 187.917 119.249 186.581 124.247C 185.114 132.236 180.656 143.976 173.639 158.734C 156.249 155.744 136.971 154.627 121.993 154.627C 107.029 154.627 87.755 155.744 70.3595 158.734C 63.3177 143.864 58.8293 131.975 57.2966 123.676C 56.081 119.185 55.4697 114.576 55.4697 109.996C 55.4697 94.0237 62.5062 79.4098 73.8308 71.8335C 87.9251 62.424 106.325 67.031 116.459 79.4649ZM 203.445 184.763C 200.528 188.166 189.223 192.676 170.655 195.828C 174.775 188.327 178.439 181.378 181.737 174.852C 193.743 177.58 201.164 180.748 203.445 183.056L 203.445 184.763ZM 152.91 198.125C 143.698 198.988 133.419 199.521 122 199.521C 110.587 199.521 100.299 198.968 91.0951 198.125C 85.8005 188.776 81.1242 180.142 77.008 172.153C 89.2771 170.306 104.326 169.029 122.002 169.029C 139.682 169.029 154.746 170.306 167.022 172.114C 162.892 180.123 158.208 188.776 152.91 198.125ZM 40.5302 183.778C 42.8107 181.143 50.2442 177.777 62.3024 174.945C 65.5912 181.481 69.2361 188.382 73.3524 195.864C 54.7609 192.789 43.4416 188.447 40.5214 185.475L 40.5302 183.778ZM 14.3529 111.214C 14.3529 94.7491 21.3097 79.6943 32.4944 71.926C 39.8817 66.7696 48.5448 65.5694 56.4531 68.1707C 46.8278 78.9155 41.1238 93.9792 41.1238 109.975C 41.1238 115.826 41.9088 121.706 43.3158 126.843C 44.8857 135.442 49.165 147.18 55.9304 161.807C 46.8845 164.18 39.1339 167.255 33.7081 171.182C 23.9109 151.042 18.005 135.732 16.1515 125.323C 14.9554 120.739 14.3529 115.995 14.3529 111.214ZM 122 228.598C 81.2873 228.598 52.025 221.987 40.5409 217.702L 40.5409 201.415C 60.7891 210.933 97.2934 213.923 122 213.923C 146.707 213.923 183.206 210.931 203.464 201.415L 203.464 218.077C 192.643 222.814 165.142 228.598 122 228.598ZM 227.74 125.879C 225.974 135.819 220.087 151.064 210.283 171.204C 204.882 167.296 197.126 164.202 188.1 161.828C 194.808 147.305 199.068 135.733 200.574 127.455C 202.116 121.763 202.892 115.903 202.892 110.014C 202.892 94.0219 197.183 78.9635 187.575 68.2134C 195.576 65.5694 204.125 66.7696 211.516 71.9455C 222.694 79.7423 229.663 94.7865 229.663 111.248C 229.647 116.015 229.05 120.778 227.74 125.879ZM 122 53.8485C 136.784 53.8485 148.819 41.7666 148.819 26.9145C 148.819 12.0819 136.792 3.47616e-08 122 3.47616e-08C 107.208 3.47616e-08 95.176 12.0819 95.176 26.9145C 95.176 41.7666 107.216 53.8485 122 53.8485ZM 122 14.4165C 128.868 14.4165 134.466 20.0245 134.466 26.9251C 134.466 33.84 128.879 39.4658 122 39.4658C 115.118 39.4658 109.531 33.84 109.531 26.9251C 109.529 20.0227 115.132 14.4165 122 14.4165Z"/>
<path id="path3_stroke" d="M 0 0L 128.02 0L 128.02 -10L 0 -10L 0 0Z"/>
</defs>
</svg>
