<svg width="220" height="54" viewBox="0 0 148 36" xmlns="http://www.w3.org/2000/svg" xmlns:xlink="http://www.w3.org/1999/xlink"><use xlink:href="#path0_fill" transform="translate(0 .616)" fill="#1C2681"/><use xlink:href="#path1_fill" transform="translate(5.174 4.479)" fill="#1C2681"/><use xlink:href="#path2_fill" transform="translate(75 1)" fill="#EAB32C"/><use xlink:href="#path3_fill" transform="translate(34 12)" fill="#1C2681"/><use xlink:href="#path4_fill" transform="translate(34 8)" fill="#EAB32C"/><use xlink:href="#path4_fill" transform="translate(110 8)" fill="#EAB32C"/><g fill="#FFDA44"><use xlink:href="#path5_fill" transform="translate(7 7)"/><use xlink:href="#path6_fill" transform="translate(14 10)"/></g><defs><path id="path0_fill" d="M28.704 1.47L23.602.688a59.426 59.426 0 0 0-18.036 0L.464 1.47A.545.545 0 0 0 0 2.008v3.895c0 11.196 5.323 21.96 14.239 28.8a.551.551 0 0 0 .688.001c8.918-6.839 14.24-17.604 14.24-28.801V2.008a.545.545 0 0 0-.463-.538zm-.63 4.433c0 10.725-5.035 21.043-13.49 27.687C6.13 26.945 1.094 16.628 1.094 5.903V2.475l4.639-.711a58.293 58.293 0 0 1 17.702 0l4.638.71v3.429z"/><path id="path1_fill" d="M18.465 1.069L15.183.5A33.894 33.894 0 0 0 3.58.5l-3.282.57C.127 1.1 0 1.265 0 1.46v2.83c0 8.136 3.424 15.96 9.16 20.93a.33.33 0 0 0 .278.082.338.338 0 0 0 .164-.082c5.737-4.97 9.16-12.793 9.16-20.93V1.46c0-.195-.126-.36-.297-.39z"/><path id="path2_fill" d="M3.545 7.514H2.53V11H.773V2.469h1.758v3.416h.803L5.42 2.469h2.144l-2.63 4.037L7.84 11H5.742L3.545 7.514zm11.912-5.045V11h-1.764V3.893H11.42l-.14 3.011c-.06 1.016-.188 1.817-.387 2.403-.2.582-.49 1.01-.873 1.283-.383.27-.907.406-1.57.41h-.458V9.588l.293-.03c.442-.058.756-.312.944-.761.19-.453.312-1.258.363-2.414l.146-3.914h5.719zM20.191 6.5l1.553-4.031h1.899L20.66 9.506l-.24.463c-.442.77-1.117 1.154-2.027 1.154l-.616-.023-.017-1.412c.093.015.246.023.457.023.246 0 .443-.043.592-.129.152-.086.279-.244.38-.475l.217-.556-2.994-6.082h1.893L20.19 6.5zm9.95-2.607h-3.809v1.652h1.371c1.004 0 1.799.244 2.385.732.59.485.885 1.139.885 1.963 0 .828-.293 1.494-.88 1.998-.581.5-1.357.754-2.325.762h-3.211V2.469h5.584v1.424zm-3.809 3.07v2.625h1.4c.45 0 .807-.123 1.073-.37.27-.245.404-.575.404-.99 0-.386-.129-.69-.387-.914-.254-.226-.603-.343-1.049-.351h-1.441z"/><path id="path3_fill" d="M12.842 19h-2.93v-6.094H4.2V19H1.27V4.781H4.2v5.762h5.713V4.781h2.93V19zm7.9-7.5l2.588-6.719h3.164l-4.97 11.729-.401.771c-.736 1.283-1.862 1.924-3.379 1.924l-1.025-.039-.03-2.354c.157.026.41.04.762.04.41 0 .74-.072.986-.215.254-.143.466-.407.635-.791l.362-.928-4.99-10.137h3.154l3.144 6.719zm11.133-6.719l3.652 10.313L39.16 4.78h3.848V19h-2.94v-3.887l.293-6.709L36.523 19h-2.011L30.684 8.414l.293 6.7V19h-2.93V4.781h3.828zm22.217 0h2.94V19h-2.94V9.557L48.398 19h-2.93V4.781h2.93v9.463l5.694-9.463zm12.49 3.916c0-.54-.212-.963-.635-1.27-.423-.312-.983-.468-1.68-.468-.624 0-1.145.156-1.562.469-.41.306-.615.706-.615 1.2h-2.93c0-.767.215-1.457.645-2.07.436-.618 1.051-1.1 1.845-1.445a6.543 6.543 0 0 1 2.618-.517c1.64 0 2.926.351 3.857 1.054.931.704 1.397 1.7 1.397 2.989 0 .631-.193 1.217-.577 1.758-.377.54-.918.973-1.62 1.298.78.274 1.38.69 1.796 1.25.417.554.625 1.244.625 2.07 0 1.277-.501 2.292-1.504 3.047-.996.75-2.32 1.123-3.974 1.123-1.036 0-1.967-.175-2.793-.527-.827-.358-1.456-.843-1.885-1.455-.423-.618-.635-1.335-.635-2.148h2.95c0 .508.22.934.663 1.279.443.338 1.01.508 1.7.508.78 0 1.396-.176 1.845-.527.456-.352.684-.798.684-1.338 0-.743-.202-1.273-.606-1.592-.403-.326-.992-.489-1.767-.489h-1.748v-2.294h1.806c1.4-.02 2.1-.655 2.1-1.905zm9.16-3.916l3.652 10.313L83.027 4.78h3.848V19h-2.94v-3.887l.293-6.709L80.391 19h-2.012L74.55 8.414l.293 6.7V19h-2.93V4.781h3.828zm21.895 11.29H92.5L91.523 19h-3.115l5.293-14.219h2.715L101.738 19h-3.115l-.986-2.93zm-4.346-2.374h3.555l-1.787-5.322-1.768 5.322zm19.307-6.543h-4.356V19h-2.93V7.154h-4.296V4.781h11.582v2.373z"/><path id="path4_fill" d="M0 0h38v2H0V0z"/><path id="path5_fill" d="M15 6.108c0-1.264-.573-2.438-1.495-3.062a2.597 2.597 0 0 0-2.742-.114c-.899-.486-1.98-.416-2.822.074V1.723h.647a.437.437 0 0 0 .441-.43.436.436 0 0 0-.441-.432H7.94V.43A.436.436 0 0 0 7.5 0a.436.436 0 0 0-.441.431v.43h-.647a.436.436 0 0 0-.441.431c0 .238.198.431.441.431h.647v1.283c-.844-.49-1.927-.56-2.822-.073a2.601 2.601 0 0 0-2.742.113C.573 3.67 0 4.843 0 6.108c0 .36.047.718.132 1.028.143.79.627 1.965 1.478 3.587v2.044a.43.43 0 0 0 .232.38c.626.33 2.716.853 5.658.853 2.99 0 5.011-.439 5.69-.874a.427.427 0 0 0 .2-.36v-2.042c.839-1.6 1.337-2.81 1.472-3.556A4.11 4.11 0 0 0 15 6.108zM7.16 4.207c.083.1.208.158.341.158.133 0 .257-.06.342-.158.624-.748 1.746-1.024 2.619-.457.696.455 1.128 1.33 1.128 2.287 0 .277-.038.552-.12.852-.09.479-.364 1.182-.796 2.066A20.149 20.149 0 0 0 7.5 8.709c-.92 0-2.105.066-3.174.246-.433-.89-.709-1.603-.803-2.1a3.063 3.063 0 0 1-.113-.82c0-.956.433-1.832 1.13-2.285.865-.565 1.996-.288 2.62.457zm5.348 6.306c-.18.203-.875.472-2.016.661.253-.448.478-.865.681-1.256.739.164 1.195.354 1.335.492v.103zm-3.108.8a21.505 21.505 0 0 1-3.8 0 44.665 44.665 0 0 1-.866-1.556A19.28 19.28 0 0 1 7.5 9.571c1.087 0 2.012.076 2.767.185-.253.479-.541.996-.867 1.557zm-6.908-.858c.14-.158.597-.36 1.339-.53.202.392.426.805.679 1.254-1.143-.184-1.838-.445-2.018-.623v-.101zM.882 6.108c0-.986.428-1.888 1.116-2.354.453-.308.986-.38 1.472-.225-.59.643-.942 1.546-.942 2.504 0 .35.048.703.135 1.01.097.516.36 1.219.775 2.094-.556.143-1.032.327-1.366.562-.602-1.207-.965-2.123-1.08-2.747a3.269 3.269 0 0 1-.11-.844zm6.618 7.03c-2.503 0-4.302-.395-5.008-.652v-.976c1.246.571 3.49.75 5.008.75 1.519 0 3.763-.179 5.008-.75v.998c-.664.284-2.355.63-5.008.63zm6.5-6.15c-.108.594-.47 1.507-1.073 2.713-.332-.234-.809-.42-1.364-.561.413-.87.675-1.563.767-2.059.095-.34.143-.692.143-1.044 0-.958-.351-1.86-.942-2.504a1.668 1.668 0 0 1 1.472.223c.687.467 1.116 1.368 1.116 2.354-.001.286-.038.57-.119.877z"/><path id="path6_fill" d="M0 0h1v9H0V0z"/></defs></svg>