<svg width="80" height="97" viewBox="0 0 513 622" xmlns="http://www.w3.org/2000/svg" xmlns:xlink="http://www.w3.org/1999/xlink"><use xlink:href="#path0_fill" fill="#1C2681"/><use xlink:href="#path1_fill" transform="translate(91 69)" fill="#1C2681"/><use xlink:href="#path2_fill" transform="translate(134 125)" fill="#EAB32C"/><use xlink:href="#path3_stroke" transform="rotate(90 25 226)" fill="#EAB32C"/><defs><path id="path0_fill" d="M504.841 26.264L415.11 12.293c-105.251-16.4-211.968-16.38-317.22 0L8.16 26.263C3.469 26.995 0 31.076 0 35.87v69.558c0 199.974 93.614 392.251 250.433 514.409a9.595 9.595 0 0 0 6.072 2.164c.508 0 1.034-.038 1.551-.123a9.66 9.66 0 0 0 4.484-2.022C419.378 497.706 513 305.42 513 105.427V35.869c0-4.794-3.468-8.875-8.159-9.605zm-11.092 79.163c0 191.566-88.547 375.851-237.244 494.525C107.798 481.268 19.251 296.993 19.251 105.427V44.201l81.572-12.698c103.296-16.097 208.059-16.097 311.354 0l81.572 12.698v61.226z"/><path id="path1_fill" d="M324.752 19.085L267.03 8.933c-67.706-11.918-136.354-11.904-204.06 0L5.25 19.085C2.232 19.616 0 22.582 0 26.065v50.548c0 145.319 60.22 285.044 161.097 373.814 1.106 1.021 2.485 1.573 3.906 1.573.327 0 .665-.028.998-.09 1.07-.2 2.062-.717 2.884-1.469C269.775 361.677 330 221.945 330 76.613V26.065c0-3.483-2.231-6.449-5.248-6.98z"/><path id="path2_fill" d="M244 111.214c0-21.11-9.328-40.69-24.315-51.116-13.437-9.38-30.575-9.959-44.6-1.88-17.316-9.63-38.883-6.245-53.076 6.343-14.227-12.597-35.854-15.972-53.087-6.344-13.876-7.989-31.098-7.557-44.6 1.881C9.321 70.505 0 90.103 0 111.214c0 6.029.765 12.002 2.153 17.178 2.323 13.202 10.2 32.798 24.033 59.878v34.129a7.21 7.21 0 0 0 3.77 6.339C40.149 234.252 74.147 243 121.999 243c48.628 0 81.521-7.333 92.566-14.6a7.174 7.174 0 0 0 3.252-6.02v-34.093c13.642-26.722 21.752-46.882 23.941-59.362A70.372 70.372 0 0 0 244 111.214zm-127.541-31.75a7.18 7.18 0 0 0 5.56 2.64c2.155 0 4.186-.99 5.561-2.64 10.157-12.493 28.397-17.102 42.602-7.632 11.315 7.594 18.343 22.218 18.343 38.182 0 4.632-.608 9.235-1.944 14.233-1.467 7.989-5.925 19.729-12.942 34.487-17.39-2.99-36.668-4.107-51.646-4.107-14.964 0-34.238 1.117-51.633 4.107-7.042-14.87-11.53-26.759-13.063-35.058a52.413 52.413 0 0 1-1.827-13.68c0-15.972 7.036-30.586 18.36-38.162 14.095-9.41 32.495-4.803 42.629 7.63zm86.986 105.299c-2.917 3.403-14.222 7.913-32.79 11.065a690.345 690.345 0 0 0 11.082-20.976c12.006 2.728 19.427 5.896 21.708 8.204v1.707zm-50.535 13.362c-9.212.863-19.491 1.396-30.91 1.396a337.97 337.97 0 0 1-30.905-1.396c-5.294-9.349-9.97-17.983-14.087-25.972 12.27-1.847 27.318-3.124 44.994-3.124 17.68 0 32.744 1.277 45.02 3.085-4.13 8.009-8.814 16.662-14.112 26.011zM40.53 183.778c2.28-2.635 9.714-6.001 21.772-8.833 3.29 6.536 6.934 13.437 11.05 20.919-18.591-3.075-29.91-7.417-32.83-10.389l.008-1.697zm-26.177-72.564c0-16.465 6.957-31.52 18.141-39.288 7.388-5.156 16.05-6.357 23.96-3.755-9.626 10.744-15.33 25.808-15.33 41.804 0 5.851.785 11.731 2.192 16.868 1.57 8.599 5.849 20.337 12.614 34.964-9.045 2.373-16.796 5.448-22.222 9.375-9.797-20.14-15.703-35.45-17.556-45.859a55.892 55.892 0 0 1-1.8-14.109zM122 228.598c-40.713 0-69.975-6.611-81.46-10.896v-16.287c20.25 9.518 56.753 12.508 81.46 12.508 24.707 0 61.206-2.992 81.464-12.508v16.662c-10.821 4.737-38.322 10.521-81.464 10.521zm105.74-102.719c-1.766 9.94-7.653 25.185-17.457 45.325-5.401-3.908-13.157-7.002-22.183-9.376 6.708-14.523 10.968-26.095 12.474-34.373a66.67 66.67 0 0 0 2.318-17.441c0-15.992-5.709-31.05-15.317-41.8 8.001-2.645 16.55-1.444 23.941 3.731 11.178 7.797 18.147 22.842 18.147 39.303-.016 4.767-.613 9.53-1.923 14.631zM122 53.849c14.784 0 26.819-12.082 26.819-26.934C148.819 12.082 136.792 0 122 0S95.176 12.082 95.176 26.915c0 14.852 12.04 26.934 26.824 26.934zm0-39.432c6.868 0 12.466 5.607 12.466 12.508 0 6.915-5.587 12.54-12.466 12.54-6.882 0-12.469-5.625-12.469-12.54-.002-6.902 5.601-12.509 12.469-12.509z"/><path id="path3_stroke" d="M0 0h128.02v-10H0V0z"/></defs></svg>