<svg xmlns="http://www.w3.org/2000/svg" viewBox="0 0 474.608 474.608" width="512" height="512"><path d="M405.099 69.514c-92.678-92.678-242.945-92.678-335.591 0-92.678 92.678-92.678 242.945 0 335.591s242.945 92.678 335.591 0c92.678-92.677 92.678-242.945 0-335.591zm-41.73 182.622H236.875l-.636.127c-8.772 0-15.891-7.151-15.891-15.891V77.333c0-8.772 7.119-15.891 15.891-15.891s15.891 7.119 15.891 15.891v143.021h111.239c8.772 0 15.891 7.119 15.891 15.891s-7.119 15.891-15.891 15.891z" fill="#333e8f"/></svg>