<svg xmlns="http://www.w3.org/2000/svg" viewBox="0 0 512.001 512.001" width="512" height="512"><path d="M498.842 177.002l-.107-.106L348.467 29.628c-17.437-17.373-45.872-17.646-63.572.055a52054.643 52054.643 0 0 1-43.934 43.852l-32.823-30.276-.082-.075c-17.789-16.164-45.035-15.513-62.01 1.463L13.19 177.002c-17.586 17.585-17.589 46.048 0 63.635l30.343 30.344c-16.891 17.69-16.56 45.57.736 62.862 7.912 7.912 18.254 12.51 29.342 13.108.589 10.675 4.946 21.178 13.081 29.316 8.143 8.143 18.655 12.5 29.34 13.084.584 10.683 4.942 21.196 13.084 29.34 8.136 8.136 18.641 12.493 29.316 13.082.598 11.088 5.196 21.428 13.108 29.341 17.545 17.545 46.091 17.543 63.634 0l10.606-10.606 31.818 31.818c17.571 17.571 48.98 17.555 66.536 0 8.136-8.136 12.492-18.641 13.081-29.316 11.087-.598 21.428-5.196 29.341-13.107 8.143-8.143 12.5-18.657 13.084-29.34 10.682-.584 21.198-4.942 29.34-13.084 7.912-7.912 12.51-18.253 13.108-29.341 10.675-.589 21.178-4.946 29.316-13.082 16.949-16.95 16.949-46.686 0-63.634l-.128-.127-11.684-11.405 39.251-39.251c17.544-17.546 17.544-46.092-.001-63.637zM86.691 312.633c-5.86 5.862-15.348 5.863-21.21 0-5.863-5.864-5.862-15.35 0-21.212l42.423-42.423c5.848-5.848 15.364-5.849 21.212 0 5.849 5.848 5.849 15.364 0 21.211l-42.425 42.424zm21.214 42.423c-5.849-5.849-5.849-15.365-.001-21.213l42.424-42.423c5.85-5.849 15.363-5.848 21.212 0 5.863 5.863 5.863 15.349 0 21.211l-42.424 42.424c-5.849 5.85-15.363 5.85-21.211.001zm42.423 42.422c-5.863-5.862-5.863-15.349 0-21.211l42.424-42.424c5.85-5.849 15.365-5.847 21.211 0 5.849 5.848 5.849 15.364 0 21.211l-42.423 42.423c-5.85 5.851-15.363 5.849-21.212.001zm106.058.001l-42.424 42.424c-5.849 5.848-15.364 5.848-21.211-.001-5.863-5.863-5.863-15.349 0-21.211l42.423-42.423c5.85-5.849 15.363-5.849 21.212 0 5.862 5.862 5.862 15.349 0 21.211zm66.535 63.635c-5.86 5.859-18.253 5.86-24.112 0l-31.818-31.818 10.606-10.606a45 45 0 0 0 8.981-12.794l36.486 34.151c5.705 5.861 5.656 15.268-.143 21.067zm127.27-127.27c-5.848 5.848-15.363 5.849-21.211.002l-.002-.002-63.635-63.635c-5.857-5.858-15.354-5.858-21.211 0-5.858 5.858-5.858 15.354 0 21.211l63.635 63.635c5.863 5.863 5.863 15.349 0 21.211-5.848 5.848-15.363 5.849-21.21.002l-.002-.002-63.635-63.635c-5.857-5.858-15.354-5.858-21.211 0-5.858 5.858-5.858 15.354 0 21.211l63.635 63.635c5.849 5.848 5.849 15.364 0 21.211-5.861 5.861-15.349 5.864-21.211 0a17.52 17.52 0 0 0-.239-.234l-66.535-63.635c-.027-.026-.056-.046-.083-.072-8.097-7.941-18.473-12.202-29.019-12.779-.584-10.683-4.942-21.196-13.084-29.34-8.136-8.136-18.64-12.492-29.315-13.082-.598-11.088-5.196-21.429-13.108-29.342-8.142-8.142-18.656-12.5-29.34-13.084-.584-10.683-4.942-21.196-13.084-29.34-17.545-17.545-46.093-17.543-63.635 0l-21.965 21.965L34.4 219.421c-5.849-5.848-5.849-15.364-.02-21.191L167.238 65.878a14.946 14.946 0 0 1 20.612-.523l31.874 29.4-48.185 48.185c-17.545 17.545-17.545 46.091 0 63.635 17.527 17.527 46.036 17.544 63.582.052l42.387-41.687.089-.088c5.85-5.848 15.363-5.849 21.212 0l.128.127 151.304 147.706c5.104 5.174 5.086 16.022-.05 21.159zm27.44-114.418l-39.506 39.506-118.17-115.36c-17.534-17.461-45.995-17.457-63.522.02l-42.381 41.682-.089.088c-5.849 5.848-15.363 5.848-21.211 0s-5.849-15.364 0-21.211l63.618-63.618s31.335-31.235 49.736-49.638c5.855-5.855 15.344-5.861 21.208.004l.107.106 150.256 147.256c5.801 5.852 5.786 15.333-.046 21.165z" fill="#cf9923"/></svg>