<svg xmlns="http://www.w3.org/2000/svg" width="512" height="512"><path d="M497 91h-46V46c0-8.284-6.716-15-15-15h-90c-32.1 0-69.304 3.876-90 28.558C235.3 34.872 198.086 31 166 31H75c-8.284 0-15 6.716-15 15v45H15c-8.284 0-15 6.716-15 15v330c0 8.284 6.716 15 15 15h169.008c4.13 0 8.027 1.731 10.693 4.749C208.666 471.561 231.581 481 256 481s47.334-9.439 61.299-25.251c2.666-3.018 6.563-4.749 10.693-4.749H497c8.284 0 15-6.716 15-15V106c0-8.284-6.716-15-15-15zm-226 15c0-27.011 12.754-45 75-45h75v270h-75c-25.146 0-53.888 2.393-75 15.647V106zM90 61h76c62.246 0 75 17.989 75 45v240.647C219.879 333.387 191.206 331 166 331H90V61zm392 360H327.992c-12.728 0-24.821 5.427-33.178 14.889C286.582 445.21 271.709 451 256 451s-30.582-5.79-38.813-15.11c-8.357-9.463-20.451-14.89-33.179-14.89H30V121h30v225c0 8.284 6.716 15 15 15h91c62.246 0 75 17.989 75 45 0 8.284 6.716 15 15 15s15-6.716 15-15c0-27.011 12.754-45 75-45h90c8.284 0 15-6.716 15-15V121h31v300z" fill="#cf9923"/><path d="M376 91h-30c-8.284 0-15 6.716-15 15s6.716 15 15 15h30c8.284 0 15-6.716 15-15s-6.716-15-15-15zm0 60h-60c-8.284 0-15 6.716-15 15s6.716 15 15 15h60c8.284 0 15-6.716 15-15s-6.716-15-15-15zm0 60h-60c-8.284 0-15 6.716-15 15s6.716 15 15 15h60c8.284 0 15-6.716 15-15s-6.716-15-15-15zm0 60h-60c-8.284 0-15 6.716-15 15s6.716 15 15 15h60c8.284 0 15-6.716 15-15s-6.716-15-15-15zM196 151h-61c-8.284 0-15 6.716-15 15s6.716 15 15 15h61c8.284 0 15-6.716 15-15s-6.716-15-15-15zm0 60h-61c-8.284 0-15 6.716-15 15s6.716 15 15 15h61c8.284 0 15-6.716 15-15s-6.716-15-15-15zm0 60h-61c-8.284 0-15 6.716-15 15s6.716 15 15 15h61c8.284 0 15-6.716 15-15s-6.716-15-15-15z" fill="#cf9923"/></svg>