<svg xmlns="http://www.w3.org/2000/svg" width="512" height="512"><path d="M371.514 192h-67.646l-47.865 70.516L208.131 192h-67.644l81.081 121.232L130.081 448h131.12v-45.788h-30.278l25.078-37.497L311.699 448h70.221l-91.488-134.768L371.514 192zm80.203-92.285l-71.434-71.431C364.729 12.728 334 0 312 0H72C50 0 32 18 32 40v432c0 22 18 40 40 40h368c22 0 40-18 40-40V168c0-22-12.729-52.729-28.283-68.285zm-22.627 22.628c1.564 1.565 3.125 3.487 4.639 5.657H352V46.272c2.17 1.515 4.092 3.075 5.656 4.64l71.434 71.431zM448 472c0 4.336-3.664 8-8 8H72c-4.336 0-8-3.664-8-8V40c0-4.336 3.664-8 8-8h240c2.416 0 5.127.305 8 .852V160h127.148c.547 2.873.852 5.583.852 8v304z" fill="#cf9923"/></svg>