<svg xmlns="http://www.w3.org/2000/svg" viewBox="0 0 453.792 453.792" width="512" height="512"><g fill="#cf9923"><path d="M439.396 0h-425v269.898h52.5v51.153c0 60.377 30.286 121.844 31.575 124.431l4.141 8.31H351.18l4.142-8.31c1.289-2.587 31.574-64.054 31.574-124.431v-51.153h52.5V0zm-30 79.645C384.824 73.944 365.452 54.571 359.751 30h49.645v49.645zM329.19 239.898H154.896v-37.375c0-24.262-19.738-44-44-44-12.546 0-23.874 5.287-31.897 13.739a96.213 96.213 0 0 0-34.603-12.543v-49.513c41.153-6.459 73.747-39.053 80.206-80.206H329.19c6.459 41.153 39.052 73.747 80.206 80.206v49.487c-41.153 6.458-73.747 39.052-80.206 80.205zM94.041 30C88.34 54.571 68.967 73.944 44.396 79.645V30h49.645zM44.396 239.898v-49.66a66.234 66.234 0 0 1 22.563 9.949 44.13 44.13 0 0 0-.063 2.336v37.375h-22.5zm77.14 183.894c-7.742-17.845-24.64-61.521-24.64-102.741V202.523c0-7.72 6.28-14 14-14s14 6.28 14 14v137.375h15c49.431 0 90.509 36.457 97.758 83.894H121.536zm235.36-102.741c0 41.223-16.9 84.903-24.64 102.741h-64.334c-6.88-59.115-53.912-106.147-113.026-113.026v-40.868h202v51.153zm2.855-81.153c5.701-24.571 25.073-43.944 49.645-49.645v49.645h-49.645z"/><path d="M226.896 67.449c-37.22 0-67.5 30.28-67.5 67.5s30.28 67.5 67.5 67.5 67.5-30.28 67.5-67.5-30.28-67.5-67.5-67.5zm0 105c-20.678 0-37.5-16.822-37.5-37.5s16.822-37.5 37.5-37.5 37.5 16.822 37.5 37.5-16.822 37.5-37.5 37.5z"/></g></svg>