<svg xmlns="http://www.w3.org/2000/svg" width="512" height="512"><path d="M466.589 0c-24.765 0-44.912 20.148-44.912 44.912 0 4.93.81 9.672 2.285 14.114l-184.674 182.83a44.725 44.725 0 0 0-28.397-.018l-33.045-33.045a44.695 44.695 0 0 0 2.303-14.17c0-24.765-20.148-44.912-44.912-44.912-24.765 0-44.912 20.148-44.912 44.912 0 4.951.817 9.712 2.303 14.17l-33.045 33.045a44.69 44.69 0 0 0-14.17-2.305c-24.765 0-44.912 20.148-44.912 44.912 0 24.765 20.148 44.912 44.912 44.912s44.912-20.148 44.912-44.912c0-8.83-2.572-17.065-6.99-24.017l27.886-27.885a44.63 44.63 0 0 0 24.017 6.989c8.83 0 17.065-2.572 24.017-6.989l27.886 27.885a44.634 44.634 0 0 0-6.99 24.017c0 24.765 20.148 44.912 44.912 44.912s44.912-20.148 44.912-44.912a44.628 44.628 0 0 0-6.95-23.954L442.511 82.795a44.63 44.63 0 0 0 24.078 7.029c24.765 0 44.912-20.148 44.912-44.912S491.353 0 466.589 0zM45.411 299.415c-8.255 0-14.971-6.716-14.971-14.971s6.716-14.971 14.971-14.971 14.971 6.716 14.971 14.971-6.716 14.971-14.971 14.971zm89.825-89.824c-8.255 0-14.971-6.716-14.971-14.971s6.716-14.971 14.971-14.971 14.971 6.716 14.971 14.971-6.716 14.971-14.971 14.971zm89.824 89.824c-8.255 0-14.971-6.716-14.971-14.971s6.716-14.971 14.971-14.971 14.971 6.716 14.971 14.971-6.716 14.971-14.971 14.971zM466.589 59.883c-8.255 0-14.971-6.716-14.971-14.971s6.716-14.971 14.971-14.971 14.971 6.716 14.971 14.971-6.716 14.971-14.971 14.971z" fill="#cf9923"/><path d="M485.984 124.112L225.1 383.076c-1.12-1.12-78.344-78.345-79.328-79.322-5.794-5.744-15.257-5.815-21.124.048l-89.822 89.823a14.975 14.975 0 0 0-4.385 10.586v92.819c0 8.268 6.703 14.971 14.971 14.971H496.53c8.268 0 14.971-6.703 14.971-14.971V134.737c0-13.28-16.094-19.982-25.517-10.625zM120.265 482.058H60.382v-71.647l59.883-59.883v131.53zm89.825 0h-59.883v-131.53l59.883 59.882v71.648zm90.899 0h-60.958v-71.616l60.958-60.014v131.63zm87.832 0h-58.09V320.707l58.09-57.167v218.518zm92.738 0h-62.997V233.819l62.997-63.128v311.367z" fill="#cf9923"/></svg>