<svg xmlns="http://www.w3.org/2000/svg" viewBox="0 0 511.133 511.133" width="512" height="512"><path d="M255.567 0C114.467 0 0 114.75 0 255.567s114.75 255.567 255.567 255.567 255.567-114.75 255.567-255.567C511.133 114.467 396.667 0 255.567 0zm174.816 119.567L356.15 193.8a117.93 117.93 0 0 0-35.417-36.55l73.95-73.95c13.317 10.483 25.217 22.95 35.7 36.267zm-174.816 220.15c-46.467 0-84.15-37.683-84.15-84.15s37.683-84.15 84.15-84.15 84.15 37.683 84.15 84.15-37.684 84.15-84.15 84.15zm110.5-275.967l-78.2 78.2c-10.2-2.833-20.967-4.533-32.3-4.533-11.9 0-23.517 1.7-34.567 5.1L143.083 64.6c33.15-19.55 71.4-30.6 112.483-30.6 40.234 0 77.917 10.767 110.501 29.75zM114.75 84.433l73.95 73.95c-14.167 9.633-26.067 22.383-34.85 37.4l-74.233-74.517a216.416 216.416 0 0 1 35.133-36.833zM60.633 150.45l79.617 79.617c-1.7 8.217-2.833 16.717-2.833 25.5 0 11.333 1.7 22.1 4.533 32.3l-78.2 78.2C44.767 333.483 34 295.8 34 255.567c0-37.967 9.633-73.95 26.633-105.117zM83.3 394.683l73.667-73.95c9.633 14.167 22.1 26.35 36.55 35.417l-73.95 74.233C106.25 419.9 93.783 408 83.3 394.683zm65.167 54.967l78.767-78.767c.283-.283.283-.567.567-.567 9.067 2.267 18.417 3.4 28.05 3.4 8.783 0 17.283-1.133 25.5-2.833l79.617 79.617c-31.45 17-67.15 26.633-105.117 26.633-39.101 0-75.651-9.916-107.384-27.483zm241.4-18.133L315.35 357c14.733-8.783 27.483-20.683 37.4-34.85l73.95 73.95c-10.767 13.317-23.233 25.217-36.833 35.417zm56.666-63.467l-77.917-77.917c3.4-11.05 5.1-22.383 5.1-34.567 0-9.633-1.133-18.983-3.4-27.767l79.333-79.333c17.567 31.733 27.767 68.283 27.767 107.1-.283 41.084-11.333 79.334-30.883 112.484z" fill="#cf9923"/></svg>