<svg viewBox="0 0 128 128" xmlns="http://www.w3.org/2000/svg"><g clip-rule="evenodd"><path fill="none" d="M0 0h128v128H0z"/><path d="M46.114 32.509c-1.241-2.972-2.182-3.085-4.062-3.161a36.272 36.272 0 0 0-2.144-.074c-2.446 0-5.003.715-6.546 2.295-1.88 1.919-6.545 6.396-6.545 15.576 0 9.181 6.695 18.06 7.598 19.303.941 1.24 13.053 20.354 31.86 28.144 14.707 6.095 19.071 5.53 22.418 4.816 4.89-1.053 11.021-4.667 12.564-9.03 1.542-4.365 1.542-8.09 1.09-8.88-.451-.79-1.693-1.24-3.573-2.182-1.88-.941-11.021-5.456-12.751-6.058-1.693-.639-3.31-.413-4.588 1.393-1.806 2.521-3.573 5.08-5.003 6.622-1.128 1.204-2.972 1.355-4.514.715-2.069-.864-7.861-2.898-15.008-9.256-5.53-4.928-9.291-11.06-10.381-12.904-1.091-1.881-.113-2.973.752-3.988.941-1.167 1.843-1.994 2.783-3.086.941-1.091 1.467-1.655 2.069-2.935.64-1.241.188-2.521-.263-3.462-.452-.943-4.213-10.124-5.756-13.848zM63.981 0C28.699 0 0 28.707 0 63.999c0 13.996 4.514 26.977 12.187 37.512L4.212 125.29l24.6-7.862C38.93 124.125 51.004 128 64.019 128 99.301 128 128 99.291 128 64.001 128 28.709 99.301.002 64.019.002h-.037V0z" fill="#67C15E" fill-rule="evenodd"/></g></svg>