<svg xmlns="http://www.w3.org/2000/svg" xmlns:xlink="http://www.w3.org/1999/xlink" id="Capa_1" width="512" height="512" x="0" y="0" enable-background="new 0 0 512.001 512.001" version="1.1" viewBox="0 0 512.001 512.001" xml:space="preserve"><g><g><path fill="#cf9923" d="M498.842,177.002c-0.035-0.036-0.071-0.071-0.107-0.106L348.467,29.628c-17.437-17.373-45.872-17.646-63.572,0.055 c-13.522,13.522-34.017,33.963-43.934,43.852l-32.823-30.276c-0.027-0.025-0.055-0.05-0.082-0.075 c-17.789-16.164-45.035-15.513-62.01,1.463L13.19,177.002c-17.586,17.585-17.589,46.048,0,63.635l30.343,30.344 c-16.891,17.69-16.56,45.57,0.736,62.862c7.912,7.912,18.254,12.51,29.342,13.108c0.589,10.675,4.946,21.178,13.081,29.316 c8.143,8.143,18.655,12.5,29.34,13.084c0.584,10.683,4.942,21.196,13.084,29.34c8.136,8.136,18.641,12.493,29.316,13.082 c0.598,11.088,5.196,21.428,13.108,29.341c17.545,17.545,46.091,17.543,63.634,0l10.606-10.606l31.818,31.818 c17.571,17.571,48.98,17.555,66.536,0c8.136-8.136,12.492-18.641,13.081-29.316c11.087-0.598,21.428-5.196,29.341-13.107 c8.143-8.143,12.5-18.657,13.084-29.34c10.682-0.584,21.198-4.942,29.34-13.084c7.912-7.912,12.51-18.253,13.108-29.341 c10.675-0.589,21.178-4.946,29.316-13.082c16.949-16.95,16.949-46.686,0-63.634c-0.042-0.043-0.085-0.085-0.128-0.127 l-11.684-11.405l39.251-39.251C516.387,223.093,516.387,194.547,498.842,177.002z M86.691,312.633 c-5.86,5.862-15.348,5.863-21.21,0c-5.863-5.864-5.862-15.35,0-21.212c7.246-7.247,38.102-38.103,42.423-42.423 c5.848-5.848,15.364-5.849,21.212,0c5.849,5.848,5.849,15.364,0,21.211L86.691,312.633z M107.905,355.056 c-5.849-5.849-5.849-15.365-0.001-21.213l42.424-42.423c5.85-5.849,15.363-5.848,21.212,0c5.863,5.863,5.863,15.349,0,21.211 l-42.424,42.424C123.267,360.905,113.753,360.905,107.905,355.056z M150.328,397.478c-5.863-5.862-5.863-15.349,0-21.211 l42.424-42.424c5.85-5.849,15.365-5.847,21.211,0c5.849,5.848,5.849,15.364,0,21.211l-42.423,42.423 C165.69,403.328,156.177,403.326,150.328,397.478z M256.386,397.479l-42.424,42.424c-5.849,5.848-15.364,5.848-21.211-0.001 c-5.863-5.863-5.863-15.349,0-21.211l42.423-42.423c5.85-5.849,15.363-5.849,21.212,0 C262.248,382.13,262.248,391.617,256.386,397.479z M322.921,461.114c-5.86,5.859-18.253,5.86-24.112,0l-31.818-31.818 l10.606-10.606c3.773-3.773,6.789-8.099,8.981-12.794l36.486,34.151C328.769,445.908,328.72,455.315,322.921,461.114z M450.191,333.844c-5.848,5.848-15.363,5.849-21.211,0.002c-0.001-0.001-0.001-0.001-0.002-0.002 c-6.886-6.886-57.417-57.417-63.635-63.635c-5.857-5.858-15.354-5.858-21.211,0c-5.858,5.858-5.858,15.354,0,21.211l63.635,63.635 c5.863,5.863,5.863,15.349,0,21.211c-5.848,5.848-15.363,5.849-21.21,0.002c-0.001,0-0.001-0.001-0.002-0.002 c-6.654-6.654-57.33-57.33-63.635-63.635c-5.857-5.858-15.354-5.858-21.211,0c-5.858,5.858-5.858,15.354,0,21.211l63.635,63.635 c5.849,5.848,5.849,15.364,0,21.211c-5.861,5.861-15.349,5.864-21.211,0c-0.079-0.079-0.159-0.157-0.239-0.234l-66.535-63.635 c-0.027-0.026-0.056-0.046-0.083-0.072c-8.097-7.941-18.473-12.202-29.019-12.779c-0.584-10.683-4.942-21.196-13.084-29.34 c-8.136-8.136-18.64-12.492-29.315-13.082c-0.598-11.088-5.196-21.429-13.108-29.342c-8.142-8.142-18.656-12.5-29.34-13.084 c-0.584-10.683-4.942-21.196-13.084-29.34c-17.545-17.545-46.093-17.543-63.635,0l-21.965,21.965L34.4,219.421 c-5.849-5.848-5.849-15.364-0.02-21.191L167.238,65.878c5.646-5.646,14.691-5.873,20.612-0.523l31.874,29.4l-48.185,48.185 c-17.545,17.545-17.545,46.091,0,63.635c17.527,17.527,46.036,17.544,63.582,0.052l42.387-41.687 c0.03-0.029,0.06-0.058,0.089-0.088c5.85-5.848,15.363-5.849,21.212,0c0.043,0.042,0.085,0.085,0.128,0.127l151.304,147.706 C455.345,317.859,455.327,328.707,450.191,333.844z M477.631,219.426l-39.506,39.506l-118.17-115.36 c-17.534-17.461-45.995-17.457-63.522,0.02l-42.381,41.682c-0.03,0.029-0.06,0.059-0.089,0.088 c-5.849,5.848-15.363,5.848-21.211,0s-5.849-15.364,0-21.211l63.618-63.618c0,0,31.335-31.235,49.736-49.638 c5.855-5.855,15.344-5.861,21.208,0.004c0.035,0.036,0.071,0.071,0.107,0.106l150.256,147.256 C483.478,204.113,483.463,213.594,477.631,219.426z"/></g></g></svg>