<svg xmlns="http://www.w3.org/2000/svg" xmlns:xlink="http://www.w3.org/1999/xlink" id="Capa_1" width="512" height="512" x="0" y="0" enable-background="new 0 0 512 512" version="1.1" viewBox="0 0 512 512" xml:space="preserve"><g><g><path fill="#cf9923" d="M497,91h-46V46c0-8.284-6.716-15-15-15h-90c-32.1,0-69.304,3.876-90,28.558C235.3,34.872,198.086,31,166,31H75 c-8.284,0-15,6.716-15,15v45H15c-8.284,0-15,6.716-15,15v330c0,8.284,6.716,15,15,15h169.008c4.13,0,8.027,1.731,10.693,4.749 C208.666,471.561,231.581,481,256,481s47.334-9.439,61.299-25.251c2.666-3.018,6.563-4.749,10.693-4.749H497 c8.284,0,15-6.716,15-15V106C512,97.716,505.284,91,497,91z M271,106c0-27.011,12.754-45,75-45h75v270h-75 c-25.146,0-53.888,2.393-75,15.647C271,341.163,271,127.289,271,106z M90,61h76c62.246,0,75,17.989,75,45 c0,5.292,0,217.658,0,240.647C219.879,333.387,191.206,331,166,331H90V61z M482,421H327.992c-12.728,0-24.821,5.427-33.178,14.889 C286.582,445.21,271.709,451,256,451c-15.709,0-30.582-5.79-38.813-15.11c-8.357-9.463-20.451-14.89-33.179-14.89H30V121h30v225 c0,8.284,6.716,15,15,15h91c62.246,0,75,17.989,75,45c0,8.284,6.716,15,15,15s15-6.716,15-15c0-27.011,12.754-45,75-45h90 c8.284,0,15-6.716,15-15V121h31V421z"/></g></g><g><g><path fill="#cf9923" d="M376,91h-30c-8.284,0-15,6.716-15,15s6.716,15,15,15h30c8.284,0,15-6.716,15-15S384.284,91,376,91z"/></g></g><g><g><path fill="#cf9923" d="M376,151h-60c-8.284,0-15,6.716-15,15s6.716,15,15,15h60c8.284,0,15-6.716,15-15S384.284,151,376,151z"/></g></g><g><g><path fill="#cf9923" d="M376,211h-60c-8.284,0-15,6.716-15,15s6.716,15,15,15h60c8.284,0,15-6.716,15-15S384.284,211,376,211z"/></g></g><g><g><path fill="#cf9923" d="M376,271h-60c-8.284,0-15,6.716-15,15s6.716,15,15,15h60c8.284,0,15-6.716,15-15S384.284,271,376,271z"/></g></g><g><g><path fill="#cf9923" d="M196,151h-61c-8.284,0-15,6.716-15,15s6.716,15,15,15h61c8.284,0,15-6.716,15-15S204.284,151,196,151z"/></g></g><g><g><path fill="#cf9923" d="M196,211h-61c-8.284,0-15,6.716-15,15s6.716,15,15,15h61c8.284,0,15-6.716,15-15S204.284,211,196,211z"/></g></g><g><g><path fill="#cf9923" d="M196,271h-61c-8.284,0-15,6.716-15,15s6.716,15,15,15h61c8.284,0,15-6.716,15-15S204.284,271,196,271z"/></g></g></svg>