<svg xmlns="http://www.w3.org/2000/svg" xmlns:xlink="http://www.w3.org/1999/xlink" id="Layer_1" width="512" height="512" x="0" y="0" enable-background="new 0 0 512.001 512.001" version="1.1" viewBox="0 0 512.001 512.001" xml:space="preserve"><g><g><g><path fill="#cf9923" d="M467.099,349.9c-11.14-6.957-25.342-7.672-37.147-1.908l-83.69,40.619v-4.414c0-21.217-16.252-37.319-37.469-37.319 h-81.055c-16.538,0-33.448-3.06-49.246-7.948l-52.803-16.765v-21.291c0-6.806-4.49-11.912-11.296-11.912H40.459 c-6.806,0-13.349,5.106-13.349,11.912v195.928c0,6.806,6.544,12.733,13.349,12.733h73.935c6.806,0,11.296-5.928,11.296-12.733 v-19.727l8.816,6.875c22.333,17.961,50.928,28.051,79.587,28.051h71.22c25.484,0,50.08-7.792,71.129-22.157l111.944-76.504 c10.335-7.055,16.506-18.786,16.506-31.298C484.891,368.904,478.24,356.858,467.099,349.9z M101.045,484.891h-49.29V313.608 h49.29V484.891z M454.491,392.883l-111.944,76.604c-16.937,11.561-36.728,17.868-57.234,17.868h-71.22 c-23.06,0-46.171-8.157-64.141-22.611l-24.262-19.296v-97.485l45.516,14.508c18.161,5.622,37.521,9.051,56.533,9.051h81.055 c7.626,0,12.824,5.046,12.824,12.674v14.898c-14.787,4.041-49.39,11.196-84.417,5.559c-6.713-1.078-12.791,3.488-13.871,10.208 s3.615,13.042,10.334,14.124c10.714,1.724,21.36,2.415,31.452,2.415c39.919,0,72.12-10.828,73.797-11.402 c0.457-0.156,0.911-0.344,1.337-0.547c0.03-0.015,0.069-0.023,0.099-0.037l100.918-49.276c4.18-2.039,8.836-1.797,12.777,0.665 s6.203,6.54,6.203,11.186C460.244,386.352,458.094,390.424,454.491,392.883z"/><path fill="#cf9923" d="M205.17,216.876c32.274,0,58.532-26.258,58.532-58.532s-26.258-58.532-58.532-58.532s-58.532,26.258-58.532,58.532 S172.896,216.876,205.17,216.876z M205.17,124.457c18.686,0,33.887,15.201,33.887,33.887s-15.201,33.887-33.887,33.887 s-33.887-15.201-33.887-33.887S186.484,124.457,205.17,124.457z"/><path fill="#cf9923" d="M304.982,117.064c32.274,0,58.532-26.258,58.532-58.532C363.514,26.258,337.256,0,304.982,0 c-32.274,0-58.532,26.258-58.532,58.532C246.45,90.806,272.708,117.064,304.982,117.064z M304.982,24.645 c18.685,0,33.887,15.201,33.887,33.887c0,18.686-15.202,33.887-33.887,33.887c-18.685,0-33.887-15.201-33.887-33.887 C271.095,39.846,286.297,24.645,304.982,24.645z"/><path fill="#cf9923" d="M306.214,200.857c-32.274,0-58.532,26.258-58.532,58.532s26.258,58.532,58.532,58.532 c32.274,0,58.532-26.258,58.532-58.532S338.488,200.857,306.214,200.857z M306.214,293.276 c-18.685,0-33.887-15.201-33.887-33.887s15.202-33.887,33.887-33.887c18.685,0,33.887,15.201,33.887,33.887 S324.899,293.276,306.214,293.276z"/></g></g></g></svg>