<svg xmlns="http://www.w3.org/2000/svg" xmlns:xlink="http://www.w3.org/1999/xlink" id="Layer_1" width="512" height="512" x="0" y="0" enable-background="new 0 0 453.792 453.792" version="1.1" viewBox="0 0 453.792 453.792" xml:space="preserve"><g><path fill="#cf9923" d="M439.396,0h-425v269.898h52.5v51.153c0,60.377,30.286,121.844,31.575,124.431l4.141,8.31H351.18l4.142-8.31 c1.289-2.587,31.574-64.054,31.574-124.431v-51.153h52.5V0z M409.396,79.645C384.824,73.944,365.452,54.571,359.751,30h49.645 V79.645z M329.19,239.898H154.896v-37.375c0-24.262-19.738-44-44-44c-12.546,0-23.874,5.287-31.897,13.739 c-10.608-6.371-22.357-10.617-34.603-12.543v-49.513c41.153-6.459,73.747-39.053,80.206-80.206H329.19 c6.459,41.153,39.052,73.747,80.206,80.206v49.487C368.243,166.151,335.649,198.745,329.19,239.898z M94.041,30 C88.34,54.571,68.967,73.944,44.396,79.645V30H94.041z M44.396,239.898v-49.66c8.062,1.867,15.712,5.242,22.563,9.949 c-0.041,0.774-0.063,1.552-0.063,2.336v37.375H44.396z M121.536,423.792c-7.742-17.845-24.64-61.521-24.64-102.741V202.523 c0-7.72,6.28-14,14-14s14,6.28,14,14v137.375h15c49.431,0,90.509,36.457,97.758,83.894H121.536z M356.896,321.051 c0,41.223-16.9,84.903-24.64,102.741h-64.334c-6.88-59.115-53.912-106.147-113.026-113.026v-40.868h202V321.051z M359.751,239.898 c5.701-24.571,25.073-43.944,49.645-49.645v49.645H359.751z"/><path fill="#cf9923" d="M226.896,67.449c-37.22,0-67.5,30.28-67.5,67.5s30.28,67.5,67.5,67.5s67.5-30.28,67.5-67.5S264.116,67.449,226.896,67.449z M226.896,172.449c-20.678,0-37.5-16.822-37.5-37.5s16.822-37.5,37.5-37.5s37.5,16.822,37.5,37.5S247.574,172.449,226.896,172.449z"/></g></svg>