<?xml version="1.0" encoding="iso-8859-1"?>
<!-- Generator: Adobe Illustrator 19.0.0, SVG Export Plug-In . SVG Version: 6.00 Build 0)  -->
<svg xmlns="http://www.w3.org/2000/svg" xmlns:xlink="http://www.w3.org/1999/xlink" version="1.1" id="Capa_1" x="0px" y="0px" viewBox="0 0 512 512" style="enable-background:new 0 0 512 512;" xml:space="preserve" width="512px" height="512px">
<g>
	<g>
		<path d="M466.589,0c-24.765,0-44.912,20.148-44.912,44.912c0,4.93,0.81,9.672,2.285,14.114L239.288,241.856    c-4.474-1.498-9.255-2.323-14.227-2.323c-4.951,0-9.713,0.817-14.17,2.305l-33.045-33.045c1.487-4.458,2.303-9.219,2.303-14.17    c0-24.765-20.148-44.912-44.912-44.912c-24.765,0-44.912,20.148-44.912,44.912c0,4.951,0.817,9.712,2.303,14.17l-33.045,33.045    c-4.457-1.487-9.219-2.305-14.17-2.305c-24.765,0-44.912,20.148-44.912,44.912c0,24.765,20.148,44.912,44.912,44.912    s44.912-20.148,44.912-44.912c0-8.83-2.572-17.065-6.99-24.017l27.886-27.885c6.951,4.418,15.187,6.989,24.017,6.989    c8.83,0,17.065-2.572,24.017-6.989l27.886,27.885c-4.418,6.952-6.99,15.187-6.99,24.017c0,24.765,20.148,44.912,44.912,44.912    s44.912-20.148,44.912-44.912c0-8.803-2.556-17.016-6.95-23.954L442.511,82.795c6.964,4.442,15.222,7.029,24.078,7.029    c24.765,0,44.912-20.148,44.912-44.912S491.353,0,466.589,0z M45.411,299.415c-8.255,0-14.971-6.716-14.971-14.971    s6.716-14.971,14.971-14.971s14.971,6.716,14.971,14.971S53.666,299.415,45.411,299.415z M135.236,209.591    c-8.255,0-14.971-6.716-14.971-14.971s6.716-14.971,14.971-14.971s14.971,6.716,14.971,14.971S143.491,209.591,135.236,209.591z     M225.06,299.415c-8.255,0-14.971-6.716-14.971-14.971s6.716-14.971,14.971-14.971s14.971,6.716,14.971,14.971    S233.315,299.415,225.06,299.415z M466.589,59.883c-8.255,0-14.971-6.716-14.971-14.971s6.716-14.971,14.971-14.971    s14.971,6.716,14.971,14.971S474.844,59.883,466.589,59.883z" fill="#cf9923"/>
	</g>
</g>
<g>
	<g>
		<path d="M485.984,124.112c-13.899,13.797-252.417,250.56-260.884,258.964c-1.12-1.12-78.344-78.345-79.328-79.322    c-5.794-5.744-15.257-5.815-21.124,0.048l-89.822,89.823c-2.807,2.809-4.385,6.615-4.385,10.586v92.819    c0,8.268,6.703,14.971,14.971,14.971H496.53c8.268,0,14.971-6.703,14.971-14.971V134.737    C511.501,121.457,495.407,114.755,485.984,124.112z M120.265,482.058H60.382v-71.647l59.883-59.883V482.058z M210.09,482.058    h-59.883v-131.53l59.883,59.882V482.058z M300.989,482.058h-60.958v-71.616l60.958-60.014V482.058z M388.821,482.058h-58.09    V320.707l58.09-57.167V482.058z M481.559,482.058h-62.997V233.819l62.997-63.128V482.058z" fill="#cf9923"/>
	</g>
</g>
<g>
</g>
<g>
</g>
<g>
</g>
<g>
</g>
<g>
</g>
<g>
</g>
<g>
</g>
<g>
</g>
<g>
</g>
<g>
</g>
<g>
</g>
<g>
</g>
<g>
</g>
<g>
</g>
<g>
</g>
</svg>
